<svg width="28" height="32" viewBox="0 0 28 32" fill="none" xmlns="http://www.w3.org/2000/svg">
<path d="M6.26045 16.751H22.5938C22.9562 16.751 23.25 16.4152 23.25 16.001C23.25 15.5868 22.9562 15.251 22.5938 15.251H6.26045C5.89804 15.251 5.6042 15.5868 5.6042 16.001C5.6042 16.4152 5.89804 16.751 6.26045 16.751Z" fill="currentColor"/>
<path d="M12.0996 21.5364C12.2912 21.5364 12.4811 21.4409 12.6108 21.2572C12.8384 20.9348 12.7941 20.4626 12.512 20.2025L7.70151 15.7682L12.512 11.3338C12.7941 11.0737 12.8383 10.6015 12.6108 10.2792C12.3833 9.95673 11.9701 9.90623 11.688 10.1662L6.24426 15.1844C6.08982 15.3267 6.00002 15.5414 6.00002 15.7681C6.00002 15.9949 6.08982 16.2095 6.24426 16.3519L11.688 21.37C11.8093 21.4819 11.9549 21.5363 12.0996 21.5364Z" fill="currentColor"/>
</svg>
