<svg width="28" height="32" viewBox="0 0 28 32" fill="none" xmlns="http://www.w3.org/2000/svg">
<path d="M22.595 16.751H6.26172C5.8993 16.751 5.60547 16.4152 5.60547 16.001C5.60547 15.5868 5.8993 15.251 6.26172 15.251H22.595C22.9574 15.251 23.2513 15.5868 23.2513 16.001C23.2513 16.4152 22.9574 16.751 22.595 16.751Z" fill="currentColor"/>
<path d="M17.1489 21.7688C16.9573 21.7688 16.7673 21.6733 16.6377 21.4896C16.4101 21.1672 16.4544 20.695 16.7365 20.435L21.547 16.0006L16.7365 11.5662C16.4544 11.3062 16.4102 10.834 16.6377 10.5116C16.8652 10.1892 17.2784 10.1387 17.5605 10.3987L23.0042 15.4168C23.1587 15.5592 23.2485 15.7738 23.2485 16.0005C23.2485 16.2273 23.1587 16.4419 23.0042 16.5843L17.5605 21.6024C17.4392 21.7143 17.2935 21.7687 17.1489 21.7688Z" fill="currentColor"/>
</svg>
