<svg width="312" height="260" viewBox="0 0 312 260" fill="none" xmlns="http://www.w3.org/2000/svg">
<rect width="311.77" height="260" fill="#AA1628"/>
<path d="M178.853 128.332C178.817 121.614 181.816 116.543 187.886 112.808C184.49 107.884 179.359 105.174 172.584 104.643C166.171 104.131 159.162 108.433 156.596 108.433C153.886 108.433 147.672 104.826 142.794 104.826C132.713 104.991 122 112.973 122 129.211C122 134.008 122.867 138.963 124.601 144.076C126.914 150.795 135.26 167.271 143.968 166.997C148.521 166.887 151.736 163.72 157.662 163.72C163.407 163.72 166.388 166.997 171.464 166.997C180.244 166.868 187.796 151.893 190 145.156C178.221 139.536 178.853 128.68 178.853 128.332ZM168.628 98.2725C173.56 92.3411 173.108 86.9405 172.964 85C168.61 85.2563 163.57 88.0023 160.697 91.3891C157.536 95.0139 155.675 99.4991 156.072 104.552C160.787 104.918 165.087 102.465 168.628 98.2725Z" fill="white"/>
</svg>
