<svg width="313" height="260" viewBox="0 0 313 260" fill="none" xmlns="http://www.w3.org/2000/svg">
<rect width="312" height="260" transform="translate(0.77002)" fill="#AA1628"/>
<g clip-path="url(#clip0_13_3727)">
<path d="M139.29 148.822C133.448 145.061 125.52 144.4 112.734 147.946C99.1028 151.148 94.558 153.2 88.5894 149.08C86.2965 147.056 85.4744 143.798 86.0882 139.104C87.512 131.452 91.3597 124.088 98.1941 115.92C102.009 111.671 105.548 108.025 110.22 106.561C113.801 105.642 113.467 108.455 113.033 108.857C112.576 108.857 111.808 108.929 111.214 109.317C110.733 109.69 109.41 110.896 109.339 112.518C109.237 115.001 111.808 114.484 112.917 113.121C114.112 111.585 115.879 108.642 114.489 105.9C113.907 104.924 112.9 104.25 111.651 104.02C107.372 103.776 103.387 105.814 99.7098 108.068C91.667 113.652 85.2334 121.39 81.5929 129.859C79.494 134.97 77.5959 142.29 80.4411 148.248C82.6421 152.382 87.2116 154.578 92.6632 154.119C96.4867 153.717 101.11 152.482 104.22 151.736C107.329 150.989 123.247 145.52 128.477 155.039C128.477 155.039 130.216 151.664 134.563 151.592C138.136 151.263 143.291 152.626 147.045 155.382C145.794 153.502 142.248 150.731 139.29 148.822Z" fill="white"/>
<path d="M114.357 116.882C111.38 114.929 105.396 118.662 100.604 125.064C96.221 130.806 94.3286 137.481 96.388 140.567C99.4517 144.199 105.139 138.916 107.558 136.089L107.87 135.758C109.514 133.993 110.785 131.868 112.015 129.829C112.015 129.829 113.145 127.963 113.199 127.877C113.898 127.748 114.74 127.547 115.688 127.274C115.674 127.317 112.06 133.389 112.429 136.403C112.543 137.323 112.456 140.682 115.737 141.701C120.11 142.434 123.602 139.045 126.683 136.031C126.683 136.031 127.208 135.529 127.505 135.242C127.43 135.543 127.332 135.944 127.332 135.944C126.051 140.394 127.777 141.328 128.857 141.673C132.119 142.621 136.017 137.883 136.03 137.883C135.929 139.375 135.633 140.61 137.207 141.6C138.693 142.132 140.196 141.322 141.339 140.561C145.455 137.661 148.771 133.123 151.45 129.2H149.742C149.721 129.2 145.526 135.278 142.801 136.599C142.797 136.599 142.301 136.854 142.015 136.652C141.662 136.351 141.801 135.724 142.02 135.28C142.033 135.251 152.539 117.039 152.539 117.039H147.579C147.579 117.039 147.037 117.915 146.993 117.972C146.959 117.944 146.88 117.793 146.825 117.721C143.751 113.472 136.792 120.008 131.552 127.587C129.535 130.501 126.967 133.783 124.303 136.151C124.303 136.151 120.358 139.766 118.672 137.169C118.056 136.077 118.246 134.482 118.593 133.435C120.556 127.85 123.938 122.783 127.786 119.725C128.873 118.878 130.054 118.633 130.64 118.992C131.198 119.323 131.288 120.141 130.935 120.701C130.039 120.672 129.321 120.944 128.737 121.547C127.587 122.753 127.187 123.916 127.553 125.007C129.329 127.534 132.872 122.538 132.7 119.495C132.639 118.403 132.056 117.37 131.187 116.867C129.892 116.092 127.916 116.293 126.637 116.911C124.925 117.557 122.214 119.81 120.632 121.562C118.641 123.758 115.225 126.198 114.157 125.925C114.507 124.992 117.392 119.092 114.357 116.882ZM138.272 125.609C139.237 124.275 142.046 120.7 142.731 120.097C145.033 118.072 145.954 118.963 146.033 119.595C143.884 123.442 141.348 127.849 138.963 131.811C138.968 131.797 138.217 132.945 138.217 132.945C137.163 134.552 136.103 135.931 134.373 136.892C134.126 136.964 133.719 136.993 133.449 136.792C133.123 136.576 132.995 136.217 133.031 135.844C133.135 134.61 134.392 130.835 138.272 125.609ZM111.287 127.92C111.287 127.92 111.244 128.05 111.222 128.092C111.217 128.092 109.06 131.609 109.06 131.609C107.758 133.346 106.132 135.529 104.1 136.576C103.498 136.777 102.665 136.907 102.241 136.376C101.342 135.299 101.805 133.806 102.182 132.601L102.315 132.17C103.395 129.242 105.108 126.657 106.776 124.26C106.797 124.246 106.843 124.231 106.86 124.231C106.864 124.246 106.871 124.246 106.874 124.275C107.92 126.284 109.882 127.217 111.35 127.648C111.358 127.648 111.368 127.662 111.368 127.691C111.368 127.734 111.344 127.792 111.287 127.92ZM113.331 123.772C113.321 123.801 112.37 125.983 112.37 125.983C112.232 126.097 112.015 126.04 111.766 125.983L111.339 125.91C109.998 125.494 108.986 124.604 108.674 123.542C108.244 121.475 110.011 119.853 110.789 119.265C111.536 118.747 112.698 118.475 113.372 119.006C113.788 119.494 113.945 120.126 113.945 120.815C113.946 121.748 113.657 122.796 113.331 123.772Z" fill="white"/>
<path d="M176.04 130.433C175.562 129.4 174.427 128.739 173.216 128.811C169.287 129.17 165.443 132.4 163.425 137.036C162.366 139.419 161.788 141.386 161.41 144.515C162.631 143.109 165.124 140.798 167.952 139.534C167.952 139.534 168.337 136.534 170.299 133.864C171.042 132.758 172.528 130.978 174.197 131.452C175.655 131.94 175.142 135.974 173.205 139.878C171.771 142.749 169.577 145.621 167.357 147.602C165.394 149.267 162.49 151.276 159.95 149.726C158.349 148.779 157.533 146.798 157.706 144.243C158.47 136.993 161.772 130.821 166.497 123.787C171.368 117.255 176.738 110.551 183.973 106.976C185.448 106.23 186.815 106.058 187.996 106.517C187.996 106.517 181.205 110.25 177.968 117.155C177.144 118.906 175.999 121.274 177.152 123.37C177.755 124.461 178.825 124.547 179.687 124.49C183.655 123.571 186.218 119.867 188.313 116.48C189.527 113.91 190.607 111.355 190.607 108.513C190.607 108.168 190.589 107.709 190.56 107.364C192.455 106.36 196.343 108.139 196.343 108.139C199.381 109.145 205.849 114.097 208.031 115.044C209.095 113.81 210.844 111.944 211.829 111.011L210.403 110.135C208.121 108.743 205.708 107.422 203.334 106.116C197.941 103.173 193.551 104.206 191.317 105.01C190.439 105.326 189.637 105.599 189.637 105.599C187.979 103.79 185.26 103.962 183.256 104.45C176.051 106.517 169.362 111.556 162.19 120.298C156.917 127.146 153.646 133.06 151.903 138.903C150.559 142.836 150.151 148.621 153.43 152.052C156.219 154.965 159.916 154.334 162.528 153.287C168.185 150.502 173.269 144.501 175.803 137.596C176.414 135.544 177.093 132.644 176.04 130.433ZM189.049 108.8C188.3 117.384 181.624 122.424 179.972 122.825C178.971 123.026 177.263 122.581 178.788 118.978C181.033 114.126 184.867 110.006 188.981 107.896C189.081 108.255 189.078 108.484 189.049 108.8Z" fill="white"/>
<path d="M228.651 109.89C225.059 111.929 221.337 113.249 216.83 112.79C215.581 114.197 214.365 115.647 213.245 117.14C219.57 118.747 226.275 115.173 230.015 111.771C233.971 108.34 235.999 104.02 235.999 104.02C235.999 104.02 233.034 107.407 228.651 109.89Z" fill="white"/>
<path d="M158.124 121.354L160.783 117.039H156.072L153.415 121.354H158.124Z" fill="white"/>
<path d="M216.812 149.221C216.305 149.565 215.594 149.3 215.86 148.511C216.523 146.501 219.158 142.406 219.158 142.406L226.497 129.396H221.469C221.231 129.788 220.719 130.689 220.719 130.689C220.487 130.302 219.791 129.441 219.505 129.255C218.277 128.479 216.475 128.846 215.232 129.549C209.827 132.708 205.884 138.948 202.774 143.815C202.774 143.815 199.501 149.224 197.683 149.627C196.265 149.742 196.411 147.832 196.473 147.387C197.021 144.171 198.295 141.113 199.578 138.343C202.189 136.534 205.168 134.165 207.875 131.567C213.75 125.954 218.704 119.594 219.428 118.173C219.428 118.173 218.644 118.331 217.719 118.36C213.199 124.662 203.949 133.821 201.145 135.184C202.387 132.198 210.413 117.944 217.243 111.125L218.318 110.091C219.98 108.469 221.702 106.804 223.044 106.531C223.186 106.517 223.368 106.531 223.526 106.862C223.586 108.125 223.115 109.058 222.575 110.12L221.819 111.671C221.819 111.671 222.89 111.47 223.594 111.239C224.41 109.704 225.314 107.981 224.981 105.929C224.87 105.268 224.392 104.766 223.767 104.651C221.729 104.263 219.509 105.77 217.722 106.991L217.65 107.034C208.465 114.226 200.709 124.59 193.929 138.744C193.437 139.117 191.539 139.562 191.216 139.347C191.885 137.969 192.728 136.117 193.15 134.107C193.223 133.533 193.291 132.945 193.291 132.37C193.291 131.135 192.994 129.973 191.887 129.169C190.589 128.523 188.984 128.824 187.902 129.312C183.055 131.322 179.432 136.289 176.818 140.38C175.412 142.979 174.011 145.762 173.622 148.95C173.349 151.447 173.906 153.055 175.326 153.859C176.787 154.605 178.626 153.83 179.349 153.457C184.259 150.873 187.69 145.691 190.394 140.954C190.502 140.94 191.978 140.897 193.095 140.609C193.11 140.609 193.117 140.609 193.141 140.624C193.077 140.839 192.5 142.562 192.5 142.562C190.786 147.586 189.993 151.003 191.612 153.026C193.926 155.883 197.756 152.926 200.872 149.021C200.203 153.701 202.63 154.433 204.48 154.075C206.604 153.501 208.972 151.232 210.071 150.07C209.718 151.433 209.814 153.874 211.747 154.118C213.072 154.362 214.063 153.642 215.211 153.025C219.326 150.785 224.252 143.322 225.531 141.165H223.854C222.036 143.911 219.722 147.512 216.812 149.221ZM179.874 148.721C179.613 148.333 179.527 147.909 179.518 147.451C179.468 144.636 182.498 139.596 184.637 136.849C184.641 136.849 184.641 136.849 184.641 136.849C185.537 138.811 187.567 140.072 188.792 140.603C187.27 143.991 182.052 151.247 179.874 148.721ZM189.651 139.089C189.506 139.19 186.947 138.328 186.452 135.959C186.033 133.92 187.437 132.327 188.797 131.524C189.38 131.064 190.259 130.907 190.904 131.135C191.502 131.538 191.664 132.256 191.664 133.03C191.664 133.505 191.601 133.992 191.546 134.437C191.546 134.437 191.535 134.524 191.533 134.538C191.107 136.131 190.454 137.696 189.651 139.089ZM210.178 147.817C210.176 147.817 209.692 148.247 209.692 148.247C209.002 148.864 208.292 149.524 207.434 149.194C207.197 149.108 207.03 148.793 206.99 148.548C206.951 146.782 207.747 145.146 208.518 143.553L208.716 143.136C210.935 139.433 213.515 135.069 217.303 132.04C217.942 131.58 218.635 131.193 219.366 131.495C219.534 131.652 219.73 131.925 219.73 132.198C219.73 132.284 219.653 132.514 219.609 132.585C218.551 134.294 217.543 136.088 216.563 137.811C214.648 141.213 212.661 144.73 210.178 147.817Z" fill="white"/>
</g>
<defs>
<clipPath id="clip0_13_3727">
<rect width="157" height="51.3818" fill="white" transform="translate(79.0005 104)"/>
</clipPath>
</defs>
</svg>
