<svg width="313" height="260" viewBox="0 0 313 260" fill="none" xmlns="http://www.w3.org/2000/svg">
<rect width="311.77" height="260" transform="translate(0.770081)" fill="#AA1628"/>
<g clip-path="url(#clip0_13_3731)">
<path d="M254.668 128.005V124.546H250.373V119.169L250.229 119.214L246.194 120.448L246.115 120.472V124.546H239.747V122.277C239.747 121.22 239.984 120.411 240.449 119.872C240.912 119.339 241.573 119.068 242.417 119.068C243.024 119.068 243.652 119.211 244.284 119.492L244.442 119.563V115.921L244.368 115.893C243.778 115.681 242.976 115.575 241.982 115.575C240.729 115.575 239.591 115.847 238.598 116.388C237.605 116.929 236.824 117.701 236.276 118.683C235.731 119.664 235.454 120.797 235.454 122.051V124.546H232.463V128.005H235.454V142.576H239.747V128.005H246.115V137.264C246.115 141.078 247.914 143.01 251.461 143.01C252.044 143.01 252.658 142.942 253.284 142.808C253.922 142.671 254.356 142.534 254.612 142.387L254.668 142.354V138.863L254.494 138.979C254.261 139.134 253.971 139.261 253.63 139.355C253.289 139.451 253.003 139.499 252.782 139.499C251.951 139.499 251.336 139.275 250.955 138.833C250.569 138.387 250.373 137.608 250.373 136.517V128.005H254.668ZM222.876 139.5C221.317 139.5 220.089 138.983 219.223 137.965C218.352 136.942 217.91 135.484 217.91 133.631C217.91 131.719 218.352 130.223 219.223 129.182C220.09 128.148 221.307 127.623 222.841 127.623C224.329 127.623 225.514 128.124 226.363 129.113C227.216 130.108 227.649 131.592 227.649 133.526C227.649 135.484 227.242 136.988 226.439 137.994C225.642 138.993 224.443 139.5 222.876 139.5ZM223.067 124.112C220.094 124.112 217.732 124.983 216.048 126.701C214.366 128.419 213.513 130.797 213.513 133.769C213.513 136.592 214.346 138.863 215.988 140.517C217.631 142.172 219.866 143.01 222.632 143.01C225.514 143.01 227.828 142.127 229.511 140.385C231.194 138.645 232.046 136.289 232.046 133.387C232.046 130.52 231.246 128.232 229.668 126.589C228.088 124.945 225.867 124.112 223.067 124.112ZM206.591 124.112C204.568 124.112 202.896 124.629 201.618 125.649C200.332 126.675 199.68 128.021 199.68 129.649C199.68 130.495 199.821 131.247 200.098 131.885C200.376 132.525 200.808 133.088 201.381 133.561C201.949 134.03 202.827 134.521 203.99 135.021C204.968 135.423 205.697 135.763 206.161 136.032C206.613 136.295 206.935 136.559 207.116 136.816C207.293 137.068 207.382 137.413 207.382 137.838C207.382 139.05 206.475 139.639 204.608 139.639C203.916 139.639 203.126 139.494 202.261 139.209C201.402 138.929 200.592 138.518 199.858 137.991L199.679 137.863V141.996L199.745 142.027C200.352 142.307 201.118 142.544 202.021 142.73C202.922 142.916 203.741 143.011 204.452 143.011C206.646 143.011 208.413 142.491 209.703 141.465C211.001 140.432 211.658 139.054 211.658 137.37C211.658 136.155 211.304 135.112 210.606 134.272C209.913 133.438 208.71 132.673 207.033 131.996C205.696 131.46 204.84 131.014 204.486 130.673C204.146 130.342 203.973 129.875 203.973 129.284C203.973 128.759 204.186 128.339 204.624 127.999C205.066 127.657 205.681 127.483 206.452 127.483C207.167 127.483 207.899 127.596 208.627 127.818C209.354 128.039 209.993 128.336 210.526 128.699L210.702 128.819V124.898L210.634 124.869C210.142 124.658 209.493 124.477 208.705 124.331C207.921 124.185 207.21 124.112 206.591 124.112ZM188.487 139.5C186.929 139.5 185.7 138.983 184.835 137.965C183.963 136.942 183.523 135.484 183.523 133.631C183.523 131.719 183.964 130.223 184.836 129.182C185.701 128.148 186.918 127.623 188.453 127.623C189.941 127.623 191.126 128.124 191.975 129.113C192.828 130.108 193.261 131.592 193.261 133.526C193.261 135.484 192.854 136.988 192.051 137.994C191.254 138.993 190.055 139.5 188.487 139.5ZM188.679 124.112C185.705 124.112 183.343 124.983 181.661 126.701C179.978 128.419 179.124 130.797 179.124 133.769C179.124 136.593 179.958 138.863 181.6 140.517C183.243 142.172 185.478 143.01 188.244 143.01C191.125 143.01 193.44 142.127 195.123 140.385C196.805 138.645 197.658 136.289 197.658 133.387C197.658 130.52 196.858 128.232 195.279 126.589C193.7 124.945 191.479 124.112 188.679 124.112ZM172.607 127.668V124.546H168.366V142.575H172.607V133.353C172.607 131.784 172.963 130.496 173.665 129.523C174.357 128.561 175.28 128.074 176.407 128.074C176.789 128.074 177.218 128.137 177.683 128.262C178.142 128.386 178.475 128.52 178.671 128.662L178.85 128.791V124.515L178.781 124.486C178.386 124.318 177.827 124.233 177.12 124.233C176.055 124.233 175.101 124.576 174.284 125.25C173.567 125.843 173.049 126.655 172.652 127.668H172.607ZM160.771 124.112C158.826 124.112 157.09 124.529 155.614 125.351C154.135 126.176 152.991 127.353 152.213 128.849C151.438 130.342 151.045 132.086 151.045 134.03C151.045 135.734 151.426 137.297 152.18 138.675C152.934 140.055 154.002 141.135 155.353 141.883C156.703 142.631 158.263 143.01 159.99 143.01C162.005 143.01 163.726 142.608 165.106 141.813L165.162 141.781V137.895L164.983 138.026C164.358 138.481 163.66 138.844 162.909 139.106C162.159 139.368 161.476 139.5 160.876 139.5C159.212 139.5 157.876 138.979 156.907 137.953C155.935 136.925 155.442 135.481 155.442 133.665C155.442 131.837 155.956 130.357 156.969 129.264C157.978 128.175 159.317 127.623 160.946 127.623C162.34 127.623 163.699 128.095 164.984 129.027L165.162 129.156V125.062L165.104 125.03C164.621 124.759 163.961 124.536 163.142 124.366C162.327 124.197 161.529 124.112 160.771 124.112ZM148.124 124.546H143.883V142.575H148.124V124.546ZM146.047 116.866C145.348 116.866 144.74 117.103 144.24 117.574C143.737 118.046 143.483 118.641 143.483 119.343C143.483 120.033 143.734 120.617 144.232 121.076C144.726 121.535 145.337 121.767 146.047 121.767C146.757 121.767 147.369 121.535 147.87 121.077C148.373 120.617 148.628 120.033 148.628 119.343C148.628 118.665 148.38 118.077 147.89 117.593C147.401 117.11 146.781 116.866 146.047 116.866ZM135.465 123.216V142.575H139.793V117.418H133.803L126.189 136.104L118.8 117.418H112.565V142.575H116.633V123.214H116.772L124.575 142.575H127.644L135.325 123.216H135.465Z" fill="white"/>
<path d="M77.9514 128.962H58.0005V109.011H77.9514V128.962Z" fill="white"/>
<path d="M99.9794 128.962H80.0289V109.011H99.9794V128.962Z" fill="white"/>
<path d="M77.9509 150.998H58.0005V131.047H77.9509V150.998Z" fill="white"/>
<path d="M99.9794 150.998H80.0289V131.047H99.9794V150.998Z" fill="white"/>
</g>
<defs>
<clipPath id="clip0_13_3731">
<rect width="197.439" height="42.0082" fill="white" transform="translate(58.0005 109)"/>
</clipPath>
</defs>
</svg>
