<svg width="313" height="260" viewBox="0 0 313 260" fill="none" xmlns="http://www.w3.org/2000/svg">
<rect width="311.77" height="260" transform="translate(0.540161)" fill="#AA1628"/>
<path d="M242.285 127.915V131.918H245.098V135.889C245.106 136.244 245.087 136.627 245.026 136.933C244.914 137.674 244.211 138.935 242.214 138.935C240.229 138.935 239.538 137.674 239.418 136.933C239.367 136.627 239.346 136.244 239.346 135.889V123.345C239.346 122.901 239.376 122.416 239.47 122.048C239.606 121.38 240.199 120.061 242.199 120.061C244.298 120.061 244.822 121.451 244.943 122.048C245.022 122.444 245.026 123.107 245.026 123.107V124.63H251.938V123.73C251.938 123.73 251.97 122.79 251.886 121.913C251.366 116.765 247.124 115.136 242.26 115.136C237.387 115.136 233.23 116.78 232.625 121.913C232.57 122.383 232.487 123.227 232.487 123.73V135.269C232.487 135.772 232.503 136.161 232.596 137.079C233.047 142.086 237.387 143.861 242.24 143.861C247.124 143.861 251.434 142.086 251.893 137.079C251.974 136.161 251.982 135.772 251.993 135.269V127.915H242.285ZM194.623 115.874H187.681V136.179C187.692 136.533 187.681 136.93 187.62 137.222C187.476 137.903 186.898 139.215 184.983 139.215C183.092 139.215 182.5 137.903 182.366 137.222C182.296 136.93 182.287 136.533 182.296 136.179V115.874H175.357V135.549C175.348 136.056 175.388 137.092 175.418 137.363C175.897 142.49 179.937 144.155 184.983 144.155C190.038 144.155 194.076 142.49 194.564 137.363C194.603 137.092 194.653 136.056 194.623 135.549V115.874ZM130.843 115.874L127.38 137.329L123.92 115.874H112.722L112.129 143.321H118.988L119.174 117.912L123.894 143.321H130.854L135.578 117.912L135.764 143.321H142.641L142.027 115.874H130.843ZM89.3857 115.874L84.3015 143.321H91.7156L95.5469 117.912L99.2863 143.321H106.649L101.586 115.874H89.3857ZM218.883 137.972L212.419 115.874H202.233V143.035H208.971L208.58 120.23L215.522 143.035H225.29V115.874H218.508L218.883 137.972ZM156.559 123.017C156.437 122.475 156.472 121.899 156.535 121.598C156.731 120.72 157.322 119.761 159.023 119.761C160.608 119.761 161.537 120.75 161.537 122.233V123.911H168.304V121.998C168.304 116.084 163.002 115.155 159.163 115.155C154.328 115.155 150.38 116.749 149.659 121.199C149.468 122.409 149.421 123.484 149.725 124.856C150.9 130.404 160.56 132.014 161.961 135.523C162.209 136.188 162.138 137.035 162.012 137.535C161.802 138.448 161.188 139.366 159.367 139.366C157.659 139.366 156.631 138.384 156.631 136.904L156.628 134.27H149.345V136.364C149.345 142.431 154.097 144.262 159.216 144.262C164.118 144.262 168.166 142.587 168.816 138.046C169.126 135.7 168.892 134.172 168.768 133.596C167.633 127.905 157.338 126.194 156.559 123.017ZM67.2965 122.95C67.1636 122.396 67.1946 121.812 67.2686 121.508C67.4561 120.634 68.05 119.658 69.7808 119.658C71.3861 119.658 72.3314 120.656 72.3314 122.151V123.85H79.1774V121.922C79.1774 115.951 73.7943 115 69.9137 115C65.0384 115 61.0549 116.618 60.326 121.1C60.1266 122.33 60.0924 123.413 60.3807 124.799C61.5691 130.411 71.3238 132.033 72.743 135.584C73.0087 136.244 72.9284 137.092 72.7966 137.611C72.5714 138.533 71.9522 139.465 70.116 139.465C68.4014 139.465 67.3758 138.466 67.3758 136.966L67.3663 134.325H60.0011V136.423C60.0011 142.56 64.8206 144.405 69.9789 144.405C74.938 144.405 79.0104 142.715 79.6747 138.122C80.0049 135.754 79.7572 134.214 79.6458 133.629C78.4873 127.869 68.0778 126.163 67.2965 122.95Z" fill="white"/>
</svg>
